<svg width="70" height="537" viewBox="0 0 70 537" fill="none" xmlns="http://www.w3.org/2000/svg">
<path d="M35 469.502L35 450.874" stroke="black" stroke-width="3" stroke-linecap="round"/>
<path d="M67 499.155C42.9658 500.325 35.7393 482.177 35.3333 474.008C34.9274 482.177 27.7009 500.325 3.66667 499.155C6.10257 505.373 19.5 508.665 27.2137 505.373C26.6724 510.981 27.5385 530.318 35.3333 535C43.1282 530.318 43.9943 510.981 43.453 505.373C51.1667 508.665 64.5641 505.373 67 499.155Z" stroke="black" stroke-width="3"/>
<path d="M47.9777 462.51C59.3606 461.04 61.5435 474.92 54.2864 479.778C50.5209 482.298 46.2013 482.803 42.1232 481.332C39.6763 480.45 37.7777 478.386 36.8294 476.468C35.8811 474.55 35.0236 470.578 34.9998 468.3C34.9761 470.578 34.4322 474.55 33.4839 476.468C32.5357 478.386 30.6371 480.45 28.1902 481.332C24.112 482.803 19.7925 482.298 16.0269 479.778C8.76985 474.92 10.9527 461.04 22.3357 462.51M47.9777 462.51C47.6518 462.552 47.3184 462.607 46.9775 462.675M47.9777 462.51C47.6398 462.537 47.3054 462.593 46.9775 462.675M47.9777 462.51C48.0472 462.505 48.1169 462.5 48.1867 462.497M46.9775 462.675C46.8981 462.691 46.8182 462.707 46.738 462.724M46.9775 462.675C42.9028 463.692 39.8332 468.696 43.5715 471.156C46.213 472.894 50.1139 471.302 49.7317 467.533M22.3357 462.51C22.6615 462.552 22.9949 462.607 23.3358 462.675M22.3357 462.51C22.6735 462.537 23.0079 462.593 23.3358 462.675M22.3357 462.51C22.2661 462.505 22.1964 462.5 22.1266 462.497M23.3358 462.675C23.4153 462.691 23.4951 462.707 23.5753 462.724M23.3358 462.675C27.4106 463.692 30.4802 468.696 26.7419 471.156C24.1003 472.894 20.1994 471.302 20.5817 467.533" stroke="black" stroke-width="3"/>
<path d="M35 431.945V105.355" stroke="black" stroke-width="3" stroke-linecap="round"/>
<path d="M43 443.743C37.1553 443.743 35.3805 448.597 35 450.874C34.6195 448.597 32.1781 443.743 26.3333 443.743L35 431.645L43 443.743Z" stroke="black" stroke-width="3" stroke-linejoin="round"/>
<path d="M35 67.4985L35 86.1265" stroke="black" stroke-width="3" stroke-linecap="round"/>
<path d="M3 37.8453C27.0342 36.6748 34.2607 54.8229 34.6667 62.9917C35.0726 54.8229 42.2991 36.6748 66.3333 37.8453C63.8974 31.6272 50.5 28.3353 42.7863 31.6272C43.3276 26.0188 42.4615 6.68197 34.6667 2.00016C26.8718 6.68197 26.0057 26.0188 26.547 31.6272C18.8333 28.3353 5.4359 31.6272 3 37.8453Z" stroke="black" stroke-width="3"/>
<path d="M22.0223 74.4899C10.6394 75.9604 8.45651 62.0803 15.7136 57.2224C19.4791 54.7017 23.7987 54.1973 27.8768 55.6677C30.3237 56.5499 32.2223 58.6144 33.1706 60.5325C34.1189 62.4506 34.9764 66.4225 35.0002 68.7004C35.0239 66.4225 35.5678 62.4506 36.5161 60.5325C37.4643 58.6144 39.3629 56.5499 41.8098 55.6677C45.888 54.1973 50.2075 54.7017 53.9731 57.2224C61.2301 62.0803 59.0473 75.9604 47.6643 74.4899M22.0223 74.4899C22.3482 74.4478 22.6816 74.3931 23.0225 74.3253M22.0223 74.4899C22.3602 74.4631 22.6946 74.4071 23.0225 74.3253M22.0223 74.4899C21.9528 74.4954 21.8831 74.4997 21.8133 74.5027M23.0225 74.3253C23.1019 74.3095 23.1818 74.293 23.262 74.2757M23.0225 74.3253C27.0972 73.3085 30.1668 68.3041 26.4285 65.8445C23.787 64.1065 19.8861 65.6985 20.2683 69.4673M47.6643 74.4899C47.3385 74.4478 47.0051 74.3931 46.6642 74.3253M47.6643 74.4899C47.3265 74.4631 46.9921 74.4071 46.6642 74.3253M47.6643 74.4899C47.7339 74.4954 47.8036 74.4997 47.8734 74.5027M46.6642 74.3253C46.5847 74.3095 46.5049 74.293 46.4247 74.2757M46.6642 74.3253C42.5894 73.3085 39.5198 68.3041 43.2581 65.8445C45.8997 64.1065 49.8006 65.6985 49.4183 69.4673" stroke="black" stroke-width="3"/>
<path d="M27 93.2572C32.8447 93.2572 34.6195 88.4032 35 86.1265C35.3805 88.4032 37.8219 93.2572 43.6667 93.2572L35 105.355L27 93.2572Z" stroke="black" stroke-width="3" stroke-linejoin="round"/>
</svg>
