<svg width="295" height="39" viewBox="0 0 295 39" fill="none" xmlns="http://www.w3.org/2000/svg">
<path d="M231.097 19.5042L64.0679 19.5042" stroke="#AAAAAA" stroke-width="3" stroke-linecap="square"/>
<path d="M238.84 19.254C238.84 20.5904 238.48 21.7318 237.976 22.4946C237.465 23.2693 236.927 23.5054 236.544 23.5054C236.16 23.5054 235.623 23.2693 235.111 22.4946C234.608 21.7318 234.248 20.5904 234.248 19.254C234.248 17.9177 234.608 16.7763 235.111 16.0135C235.623 15.2388 236.16 15.0027 236.544 15.0027C236.927 15.0027 237.465 15.2388 237.976 16.0135C238.48 16.7763 238.84 17.9177 238.84 19.254Z" stroke="#AAAAAA" stroke-width="3"/>
<path d="M269.692 6.50098C264.211 14.5655 260.394 17.4304 252.223 19.5041C260.394 21.5777 264.211 24.4426 269.692 32.5071L284.573 19.5041L269.692 6.50098Z" stroke="#AAAAAA" stroke-width="3"/>
<path d="M282.592 12.0023C278.466 16.2533 277.476 17.2536 272.359 19.5041C276.981 21.2545 278.796 23.255 282.922 27.2559L292 19.5041L282.592 12.0023Z" stroke="#AAAAAA" stroke-width="3"/>
<path d="M241.39 9.8819C240.582 1.34264 248.207 -0.294877 250.875 5.14919C252.26 7.97405 252.537 11.2145 251.729 14.2738C251.245 16.1094 250.111 17.5337 249.057 18.2451C248.003 18.9565 245.882 19.4864 244.631 19.5042C245.882 19.522 248.003 20.0434 249.057 20.7548C250.111 21.4661 251.245 22.8904 251.729 24.726C252.537 27.7854 252.26 31.0258 250.875 33.8507C248.207 39.2947 240.582 37.6572 241.39 29.118M241.39 9.8819C241.413 10.1263 241.443 10.3764 241.48 10.6322M241.39 9.8819C241.404 10.1354 241.435 10.3862 241.48 10.6322M241.39 9.8819C241.387 9.82972 241.384 9.77744 241.383 9.72507M241.48 10.6322C241.489 10.6918 241.498 10.7517 241.507 10.8119M241.48 10.6322C242.039 13.689 244.788 15.9917 246.139 13.1873C247.094 11.2057 246.219 8.27932 244.149 8.56609M241.39 29.118C241.413 28.8735 241.443 28.6234 241.48 28.3677M241.39 29.118C241.404 28.8645 241.435 28.6136 241.48 28.3677M241.39 29.118C241.387 29.1701 241.384 29.2224 241.383 29.2748M241.48 28.3677C241.489 28.3081 241.498 28.2482 241.507 28.188M241.48 28.3677C242.039 25.3109 244.788 23.0081 246.139 25.8125C247.094 27.7942 246.219 30.7205 244.149 30.4338" stroke="#AAAAAA" stroke-width="3"/>
<path d="M244.961 19.5042C243.663 19.5042 241.121 19.5042 241.344 19.5042" stroke="#AAAAAA" stroke-width="3"/>
<path d="M56.1602 19.746C56.1602 18.4096 56.5205 17.2682 57.024 16.5054C57.5353 15.7307 58.0727 15.4946 58.4563 15.4946C58.84 15.4946 59.3774 15.7307 59.8887 16.5054C60.3922 17.2682 60.7524 18.4096 60.7524 19.746C60.7524 21.0823 60.3922 22.2237 59.8887 22.9865C59.3774 23.7612 58.84 23.9973 58.4563 23.9973C58.0727 23.9973 57.5353 23.7612 57.024 22.9865C56.5205 22.2237 56.1602 21.0823 56.1602 19.746Z" stroke="#AAAAAA" stroke-width="3"/>
<path d="M25.3081 32.4989C30.7887 24.4344 34.6062 21.5695 42.7769 19.4958C34.6062 17.4221 30.7887 14.5573 25.3081 6.49273L10.4273 19.4958L25.3081 32.4989Z" stroke="#AAAAAA" stroke-width="3"/>
<path d="M12.4076 26.9977C16.5338 22.7467 17.5241 21.7464 22.6406 19.4959C18.0193 17.7455 16.2037 15.745 12.0775 11.7441L2.99985 19.4959L12.4076 26.9977Z" stroke="#AAAAAA" stroke-width="3"/>
<path d="M53.6103 29.1181C54.4181 37.6574 46.7933 39.2949 44.1247 33.8508C42.7399 31.0259 42.4629 27.7855 43.2706 24.7262C43.7552 22.8906 44.8893 21.4663 45.943 20.7549C46.9967 20.0435 49.1176 19.5136 50.369 19.4958C49.1176 19.478 46.9967 18.9566 45.943 18.2452C44.8893 17.5339 43.7552 16.1096 43.2706 14.274C42.4629 11.2146 42.7399 7.9742 44.1247 5.14933C46.7933 -0.294735 54.4182 1.34278 53.6103 9.88204M53.6103 29.1181C53.5872 28.8737 53.5572 28.6236 53.5199 28.3678M53.6103 29.1181C53.5956 28.8646 53.5648 28.6138 53.5199 28.3678M53.6103 29.1181C53.6133 29.1703 53.6157 29.2226 53.6173 29.2749M53.5199 28.3678C53.5112 28.3082 53.5021 28.2483 53.4927 28.1881M53.5199 28.3678C52.9613 25.311 50.2122 23.0083 48.8611 25.8127C47.9063 27.7943 48.7809 30.7207 50.8512 30.4339M53.6103 9.88204C53.5872 10.1265 53.5572 10.3766 53.5199 10.6323M53.6103 9.88204C53.5956 10.1355 53.5648 10.3864 53.5199 10.6323M53.6103 9.88204C53.6133 9.82987 53.6157 9.77758 53.6173 9.72521M53.5199 10.6323C53.5112 10.6919 53.5021 10.7518 53.4927 10.812M53.5199 10.6323C52.9613 13.6891 50.2122 15.9919 48.8611 13.1875C47.9063 11.2058 48.7809 8.27946 50.8512 8.56623" stroke="#AAAAAA" stroke-width="3"/>
<path d="M50.0389 19.4958C51.3374 19.4958 53.8788 19.4958 53.6562 19.4958" stroke="#AAAAAA" stroke-width="3"/>
</svg>
