<svg width="26" height="26" viewBox="0 0 26 26" fill="none" xmlns="http://www.w3.org/2000/svg">
<path d="M1.5 21.9766C1.5 20.4516 2.1058 18.989 3.18414 17.9107C4.26247 16.8324 5.72501 16.2266 7.25 16.2266H18.75C20.275 16.2266 21.7375 16.8324 22.8159 17.9107C23.8942 18.989 24.5 20.4516 24.5 21.9766C24.5 22.7391 24.1971 23.4703 23.6579 24.0095C23.1188 24.5487 22.3875 24.8516 21.625 24.8516H4.375C3.6125 24.8516 2.88123 24.5487 2.34207 24.0095C1.8029 23.4703 1.5 22.7391 1.5 21.9766Z" stroke="#333333" stroke-width="2" stroke-linejoin="round"/>
<path d="M13 10.4766C15.3817 10.4766 17.3125 8.54579 17.3125 6.16406C17.3125 3.78233 15.3817 1.85156 13 1.85156C10.6183 1.85156 8.6875 3.78233 8.6875 6.16406C8.6875 8.54579 10.6183 10.4766 13 10.4766Z" stroke="#333333" stroke-width="2"/>
</svg>
