<svg width="883" height="73" viewBox="0 0 883 73" fill="none" xmlns="http://www.w3.org/2000/svg">
<path d="M695 36.5085L189 36.5084" stroke="black" stroke-width="3" stroke-linecap="square"/>
<circle cx="711.5" cy="36.0084" r="10" stroke="black" stroke-width="3"/>
<path d="M811.92 10.5084C795.317 26.6337 783.752 32.362 759 36.5084C783.752 40.6548 795.317 46.3832 811.92 62.5084L857 36.5084L811.92 10.5084Z" stroke="black" stroke-width="3"/>
<path d="M851 21.5084C838.5 30.0084 835.5 32.0084 820 36.5084C834 40.0084 839.5 44.0084 852 52.0084L879.5 36.5084L851 21.5084Z" stroke="black" stroke-width="3"/>
<path d="M726.181 17.2685C723.733 0.194023 746.832 -3.08024 754.917 7.80531C759.111 13.4537 759.951 19.933 757.504 26.0503C756.036 29.7206 752.6 32.5685 749.408 33.9909C746.216 35.4133 739.791 36.4728 736 36.5084C739.791 36.544 746.216 37.5867 749.408 39.0091C752.6 40.4315 756.036 43.2794 757.504 46.9497C759.951 53.0669 759.111 59.5463 754.917 65.1946C746.832 76.0802 723.733 72.8059 726.181 55.7315M726.181 17.2685C726.251 17.7572 726.342 18.2573 726.454 18.7687M726.181 17.2685C726.225 17.7753 726.318 18.2769 726.454 18.7687M726.181 17.2685C726.171 17.1642 726.164 17.0596 726.159 16.9549M726.454 18.7687C726.481 18.8879 726.508 19.0076 726.537 19.128M726.454 18.7687C728.147 24.8808 736.475 29.4852 740.568 23.8778C743.46 19.9155 740.811 14.0641 734.539 14.6375M726.181 55.7315C726.251 55.2427 726.342 54.7426 726.454 54.2313M726.181 55.7315C726.225 55.2247 726.318 54.7231 726.454 54.2313M726.181 55.7315C726.171 55.8358 726.164 55.9403 726.159 56.0451M726.454 54.2313C726.481 54.1121 726.508 53.9923 726.537 53.872M726.454 54.2313C728.147 48.1192 736.475 43.5148 740.568 49.1222C743.46 53.0845 740.811 58.9359 734.539 58.3625" stroke="black" stroke-width="3"/>
<path d="M737 36.5084C733.066 36.5084 725.367 36.5084 726.042 36.5084" stroke="black" stroke-width="3"/>
<circle cx="172" cy="36.9916" r="10" transform="rotate(180 172 36.9916)" stroke="black" stroke-width="3"/>
<path d="M71.58 62.4916C88.1829 46.3663 99.7477 40.638 124.5 36.4916C99.7477 32.3452 88.1829 26.6168 71.58 10.4916L26.5 36.4916L71.58 62.4916Z" stroke="black" stroke-width="3"/>
<path d="M32.5 51.4916C45 42.9916 48 40.9916 63.5 36.4916C49.5 32.9916 44 28.9916 31.5 20.9916L4 36.4916L32.5 51.4916Z" stroke="black" stroke-width="3"/>
<path d="M157.319 55.7315C159.767 72.806 136.668 76.0802 128.583 65.1947C124.389 59.5463 123.549 53.067 125.996 46.9497C127.464 43.2794 130.9 40.4315 134.092 39.0091C137.284 37.5867 143.709 36.5272 147.5 36.4916C143.709 36.456 137.284 35.4133 134.092 33.9909C130.9 32.5685 127.464 29.7206 125.996 26.0503C123.549 19.9331 124.389 13.4537 128.583 7.80535C136.668 -3.0802 159.767 0.194059 157.319 17.2685M157.319 55.7315C157.249 55.2428 157.158 54.7427 157.046 54.2313M157.319 55.7315C157.275 55.2247 157.182 54.7231 157.046 54.2313M157.319 55.7315C157.329 55.8358 157.336 55.9404 157.341 56.0451M157.046 54.2313C157.019 54.1121 156.992 53.9924 156.963 53.872M157.046 54.2313C155.353 48.1192 147.025 43.5148 142.932 49.1222C140.04 53.0845 142.689 58.9359 148.961 58.3625M157.319 17.2685C157.249 17.7573 157.158 18.2574 157.046 18.7687M157.319 17.2685C157.275 17.7753 157.182 18.2769 157.046 18.7687M157.319 17.2685C157.329 17.1642 157.336 17.0597 157.341 16.9549M157.046 18.7687C157.019 18.8879 156.992 19.0077 156.963 19.128M157.046 18.7687C155.353 24.8808 147.025 29.4852 142.932 23.8778C140.04 19.9155 142.689 14.0641 148.961 14.6375" stroke="black" stroke-width="3"/>
<path d="M146.5 36.4916C150.434 36.4916 158.133 36.4916 157.458 36.4916" stroke="black" stroke-width="3"/>
</svg>
