<svg width="23" height="30" viewBox="0 0 23 30" fill="none" xmlns="http://www.w3.org/2000/svg">
<path d="M11.5 22.8516C10.7707 22.8516 10.0712 22.5618 9.55546 22.0461C9.03973 21.5304 8.75 20.8309 8.75 20.1016C8.75 18.5753 9.97375 17.3516 11.5 17.3516C12.2293 17.3516 12.9288 17.6413 13.4445 18.157C13.9603 18.6727 14.25 19.3722 14.25 20.1016C14.25 20.8309 13.9603 21.5304 13.4445 22.0461C12.9288 22.5618 12.2293 22.8516 11.5 22.8516ZM19.75 26.9766V13.2266H3.25V26.9766H19.75ZM19.75 10.4766C20.4793 10.4766 21.1788 10.7663 21.6945 11.282C22.2103 11.7977 22.5 12.4972 22.5 13.2266V26.9766C22.5 27.7059 22.2103 28.4054 21.6945 28.9211C21.1788 29.4368 20.4793 29.7266 19.75 29.7266H3.25C2.52065 29.7266 1.82118 29.4368 1.30546 28.9211C0.789731 28.4054 0.5 27.7059 0.5 26.9766V13.2266C0.5 11.7003 1.72375 10.4766 3.25 10.4766H4.625V7.72656C4.625 5.9032 5.34933 4.15452 6.63864 2.8652C7.92795 1.57589 9.67664 0.851563 11.5 0.851562C12.4028 0.851562 13.2968 1.02939 14.1309 1.37489C14.9651 1.72039 15.723 2.2268 16.3614 2.8652C16.9998 3.50361 17.5062 4.2615 17.8517 5.09561C18.1972 5.92973 18.375 6.82372 18.375 7.72656V10.4766H19.75ZM11.5 3.60156C10.406 3.60156 9.35677 4.03616 8.58318 4.80975C7.8096 5.58333 7.375 6.63254 7.375 7.72656V10.4766H15.625V7.72656C15.625 6.63254 15.1904 5.58333 14.4168 4.80975C13.6432 4.03616 12.594 3.60156 11.5 3.60156Z" fill="black"/>
</svg>
