<svg width="139" height="62" viewBox="0 0 139 62" fill="none" xmlns="http://www.w3.org/2000/svg">
<path d="M35.1388 20.984C35.1388 20.6213 35.1814 20.376 35.2668 20.248C35.3734 20.0987 35.5548 20.024 35.8108 20.024C36.0881 20.024 36.5574 20.312 37.2188 20.888C37.8801 21.464 38.2321 21.976 38.2748 22.424C38.3601 23.192 38.7654 24.5573 39.4908 26.52C40.2161 28.4613 41.0481 30.4347 41.9868 32.44C43.1814 31.032 44.6854 29.1653 46.4988 26.84C48.3121 24.4933 49.6561 22.8293 50.5308 21.848C51.4054 20.8667 52.0348 20.376 52.4188 20.376C52.8028 20.376 53.2081 20.5893 53.6348 21.016C54.0614 21.4427 54.2748 21.848 54.2748 22.232C54.2748 22.616 54.2321 23.0533 54.1468 23.544C54.0614 24.0347 53.9121 24.6853 53.6988 25.496C53.5068 26.2853 53.3254 26.9787 53.1548 27.576C53.0054 28.152 52.7494 29.0587 52.3868 30.296C52.0241 31.5333 51.7468 32.5253 51.5548 33.272C51.3628 33.9973 51.1388 34.8933 50.8828 35.96C50.6268 37.0053 50.4134 37.8693 50.2428 38.552C50.0934 39.2133 49.9334 39.864 49.7628 40.504C49.4428 41.7413 49.1334 42.36 48.8348 42.36C48.5574 42.36 48.2801 42.104 48.0028 41.592C47.7254 41.08 47.5868 40.3973 47.5868 39.544C47.5868 38.6693 47.9494 36.6853 48.6748 33.592C49.4214 30.4987 50.2214 27.7893 51.0748 25.464C47.1494 30.3707 44.7281 33.304 43.8108 34.264C42.9148 35.224 42.1681 35.704 41.5708 35.704C40.9948 35.704 40.4508 35.3733 39.9388 34.712C39.1708 33.6027 38.1361 30.9787 36.8348 26.84C36.4721 29.08 36.0668 31 35.6188 32.6C35.1921 34.1787 34.9041 35.2347 34.7548 35.768C34.6268 36.28 34.5094 36.7067 34.4028 37.048C34.3174 37.3893 34.2108 37.7947 34.0828 38.264C33.9548 38.712 33.8374 39.0853 33.7308 39.384C33.6454 39.6827 33.5494 40.0133 33.4427 40.376C33.3361 40.7173 33.2401 40.9947 33.1548 41.208C33.0908 41.4213 33.0161 41.624 32.9308 41.816C32.7601 42.1787 32.6321 42.36 32.5468 42.36C32.2908 42.36 31.9708 42.0827 31.5868 41.528C31.2028 40.9733 31.0108 40.44 31.0108 39.928C31.0108 39.416 31.6934 36.472 33.0588 31.096C34.4454 25.72 35.1388 22.3493 35.1388 20.984ZM61.1248 32.344C59.9728 35.992 59.3968 38.2 59.3968 38.968C59.3968 39.224 59.4714 39.4373 59.6208 39.608C59.7914 39.7573 60.0048 39.832 60.2608 39.832C62.7141 39.832 65.4234 39.4373 68.3888 38.648C69.3488 38.392 69.9034 38.264 70.0528 38.264C70.3728 38.264 70.5328 38.488 70.5328 38.936C70.5328 39.704 69.3488 40.4933 66.9808 41.304C64.6341 42.1147 62.3621 42.52 60.1648 42.52C59.1834 42.52 58.3194 42.232 57.5728 41.656C56.8474 41.08 56.4848 40.3547 56.4848 39.48C56.4848 38.6053 56.7941 37.112 57.4128 35C58.0528 32.888 58.6928 30.6373 59.3328 28.248C59.9728 25.8587 60.2928 23.8427 60.2928 22.2C60.2928 21.9653 60.3354 21.72 60.4208 21.464C60.7834 20.6747 63.1088 20.28 67.3968 20.28C71.6848 20.28 73.8288 20.5893 73.8288 21.208C73.8288 21.6347 73.3701 21.9227 72.4528 22.072C71.6848 22.2213 70.6608 22.36 69.3808 22.488C68.1221 22.5947 67.2368 22.68 66.7248 22.744C66.2128 22.7867 64.9754 22.9787 63.0128 23.32V23.416C63.0128 24.8667 62.6181 27.0533 61.8288 29.976C61.9568 29.9973 62.3834 30.008 63.1088 30.008C63.8554 30.008 64.8474 29.9547 66.0848 29.848C67.3221 29.7413 68.2501 29.688 68.8688 29.688C69.5088 29.688 69.8288 29.8373 69.8288 30.136C69.8288 30.8827 68.9541 31.4373 67.2048 31.8C65.4554 32.1627 63.4288 32.344 61.1248 32.344ZM79.5555 20.76C79.5555 20.4187 79.5982 20.1733 79.6835 20.024C79.7902 19.8747 79.9928 19.8 80.2915 19.8C80.6115 19.8 81.0062 20.0667 81.4755 20.6C81.9448 21.1333 82.1795 21.6987 82.1795 22.296C82.1795 23.7893 81.2622 27.5653 79.4275 33.624C78.5102 36.568 78.0515 38.328 78.0515 38.904C78.0515 39.48 78.3288 39.768 78.8835 39.768C81.2942 39.768 83.9395 39.3733 86.8195 38.584C87.7368 38.328 88.2808 38.2 88.4515 38.2C88.6435 38.2 88.7715 38.2427 88.8355 38.328C88.8995 38.392 88.9315 38.5307 88.9315 38.744C88.9315 39.64 87.8328 40.4827 85.6355 41.272C83.4595 42.0613 81.2408 42.456 78.9795 42.456C77.9555 42.456 77.0595 42.1573 76.2915 41.56C75.5448 40.9627 75.1715 40.2587 75.1715 39.448C75.1715 38.616 75.8968 35.6613 77.3475 30.584C78.8195 25.5067 79.5555 22.232 79.5555 20.76ZM96.0643 20.952C96.0643 20.5893 96.1069 20.344 96.1923 20.216C96.2776 20.0667 96.4696 19.992 96.7683 19.992C97.0883 19.992 97.5043 20.28 98.0163 20.856C98.5283 21.4107 98.7843 22.072 98.7843 22.84C98.7843 23.5867 98.3469 25.6453 97.4723 29.016C96.6189 32.3867 96.1923 34.68 96.1923 35.896C96.1923 37.0907 96.4163 38.0613 96.8643 38.808C97.3123 39.5547 97.8883 39.928 98.5923 39.928C99.2963 39.928 100.075 39.5227 100.928 38.712C101.782 37.9013 102.571 36.8453 103.296 35.544C104.043 34.2213 104.662 32.6213 105.152 30.744C105.664 28.8453 105.92 26.936 105.92 25.016C105.92 24.12 105.867 23.224 105.76 22.328C105.675 21.432 105.632 20.8773 105.632 20.664C105.632 20.216 105.824 19.992 106.208 19.992C106.699 19.992 107.264 20.3653 107.904 21.112C108.544 21.8373 108.864 22.776 108.864 23.928C108.864 27.2133 108.384 30.296 107.424 33.176C106.464 36.056 105.174 38.36 103.552 40.088C101.931 41.7947 100.203 42.648 98.3683 42.648C97.0243 42.648 95.8509 41.9973 94.8483 40.696C93.8669 39.3947 93.3763 37.9013 93.3763 36.216C93.3763 34.5307 93.8243 31.8853 94.7203 28.28C95.6163 24.6533 96.0643 22.2107 96.0643 20.952Z" fill="black"/>
<path d="M33.9304 52.1006H99.3695" stroke="black" stroke-width="3"/>
<path d="M23.5679 44.835L24.9299 44.2066C24.7501 43.8169 24.412 43.5228 24.0011 43.3989C23.5902 43.2749 23.1459 43.3329 22.7805 43.5582L23.5679 44.835ZM34.2817 52.105L34.5117 53.5873C35.2425 53.4739 35.7817 52.8447 35.7817 52.105C35.7817 51.3654 35.2425 50.7361 34.5117 50.6227L34.2817 52.105ZM23.5319 59.9015L22.7402 61.1756C23.1095 61.4051 23.5603 61.463 23.9756 61.3344C24.391 61.2058 24.7301 60.9033 24.9051 60.5052L23.5319 59.9015ZM14.1455 52.1884L13.1238 51.0902C12.519 51.6529 12.483 52.5987 13.0432 53.2057L14.1455 52.1884ZM22.2059 45.4633C24.8171 51.1234 31.0337 53.1191 34.0517 53.5873L34.5117 50.6227C31.8078 50.2033 26.8967 48.4697 24.9299 44.2066L22.2059 45.4633ZM34.0517 50.6227C32.4267 50.8749 30.1169 51.6009 27.8961 52.9575C25.6673 54.319 23.4472 56.367 22.1588 59.2979L24.9051 60.5052C25.8828 58.2813 27.5996 56.6541 29.46 55.5176C31.3286 54.3762 33.2606 53.7814 34.5117 53.5873L34.0517 50.6227ZM24.3236 58.6275C20.9043 56.5027 17.9606 54.1106 15.2478 51.1711L13.0432 53.2057C15.9506 56.3561 19.1067 58.9177 22.7402 61.1756L24.3236 58.6275ZM15.1672 53.2866C18.4557 50.2272 21.1925 48.0622 24.3553 46.1117L22.7805 43.5582C19.4073 45.6385 16.5141 47.936 13.1238 51.0902L15.1672 53.2866Z" fill="black"/>
<path d="M104.439 9.66113L38.9999 9.66113" stroke="black" stroke-width="3"/>
<path d="M114.801 16.9268L113.439 17.5551C113.619 17.9449 113.957 18.2389 114.368 18.3628C114.779 18.4868 115.224 18.4288 115.589 18.2035L114.801 16.9268ZM104.088 9.6567L103.858 8.17443C103.127 8.28782 102.588 8.91706 102.588 9.6567C102.588 10.3963 103.127 11.0256 103.858 11.139L104.088 9.6567ZM114.837 1.86017L115.629 0.586117C115.26 0.356621 114.809 0.298677 114.394 0.427299C113.978 0.555922 113.639 0.85845 113.464 1.2565L114.837 1.86017ZM124.224 9.57331L125.246 10.6715C125.85 10.1088 125.886 9.16307 125.326 8.55601L124.224 9.57331ZM116.164 16.2984C113.552 10.6384 107.336 8.64265 104.318 8.17443L103.858 11.139C106.562 11.5584 111.473 13.292 113.439 17.5551L116.164 16.2984ZM104.318 11.139C105.943 10.8869 108.252 10.1608 110.473 8.80421C112.702 7.44267 114.922 5.39467 116.211 2.46384L113.464 1.2565C112.487 3.48042 110.77 5.10759 108.909 6.24408C107.041 7.38554 105.109 7.98035 103.858 8.17443L104.318 11.139ZM114.046 3.13422C117.465 5.25899 120.409 7.65111 123.122 10.5906L125.326 8.55601C122.419 5.40562 119.263 2.84402 115.629 0.586117L114.046 3.13422ZM123.202 8.47511C119.914 11.5345 117.177 13.6995 114.014 15.65L115.589 18.2035C118.962 16.1232 121.855 13.8257 125.246 10.6715L123.202 8.47511Z" fill="black"/>
</svg>
